<svg width="108" height="32" viewBox="0 0 108 32" fill="none" xmlns="http://www.w3.org/2000/svg">
<path d="M16.5 16H27.5" stroke="#8B5CF6" stroke-width="2" stroke-linecap="round" stroke-linejoin="round"/>
<path d="M16.5 8H27.5" stroke="#8B5CF6" stroke-width="2" stroke-linecap="round" stroke-linejoin="round"/>
<path d="M16.5 24H27.5" stroke="#8B5CF6" stroke-width="2" stroke-linecap="round" stroke-linejoin="round"/>
<path d="M12 6L7.6625 10L5.5 8" stroke="#8B5CF6" stroke-width="2" stroke-linecap="round" stroke-linejoin="round"/>
<path d="M12 14L7.6625 18L5.5 16" stroke="#8B5CF6" stroke-width="2" stroke-linecap="round" stroke-linejoin="round"/>
<path d="M12 22L7.6625 26L5.5 24" stroke="#8B5CF6" stroke-width="2" stroke-linecap="round" stroke-linejoin="round"/>
<path d="M49.3523 10.0881V7.04545H63.6875V10.0881H58.3438V24.5H54.696V10.0881H49.3523ZM69.9964 24.7557C68.6726 24.7557 67.5277 24.4744 66.5618 23.9119C65.6016 23.3437 64.8601 22.554 64.3374 21.5426C63.8146 20.5256 63.5533 19.3466 63.5533 18.0057C63.5533 16.6534 63.8146 15.4716 64.3374 14.4602C64.8601 13.4432 65.6016 12.6534 66.5618 12.0909C67.5277 11.5227 68.6726 11.2386 69.9964 11.2386C71.3203 11.2386 72.4624 11.5227 73.4226 12.0909C74.3885 12.6534 75.1328 13.4432 75.6555 14.4602C76.1783 15.4716 76.4396 16.6534 76.4396 18.0057C76.4396 19.3466 76.1783 20.5256 75.6555 21.5426C75.1328 22.554 74.3885 23.3437 73.4226 23.9119C72.4624 24.4744 71.3203 24.7557 69.9964 24.7557ZM70.0135 21.9432C70.6158 21.9432 71.1186 21.7727 71.522 21.4318C71.9254 21.0852 72.2294 20.6136 72.4339 20.017C72.6442 19.4205 72.7493 18.7415 72.7493 17.9801C72.7493 17.2188 72.6442 16.5398 72.4339 15.9432C72.2294 15.3466 71.9254 14.875 71.522 14.5284C71.1186 14.1818 70.6158 14.0085 70.0135 14.0085C69.4055 14.0085 68.8942 14.1818 68.4794 14.5284C68.0703 14.875 67.7607 15.3466 67.5504 15.9432C67.3459 16.5398 67.2436 17.2188 67.2436 17.9801C67.2436 18.7415 67.3459 19.4205 67.5504 20.017C67.7607 20.6136 68.0703 21.0852 68.4794 21.4318C68.8942 21.7727 69.4055 21.9432 70.0135 21.9432ZM83.6243 24.7131C82.63 24.7131 81.7294 24.4574 80.9226 23.946C80.1214 23.429 79.4851 22.6705 79.0135 21.6705C78.5476 20.6648 78.3146 19.4318 78.3146 17.9716C78.3146 16.4716 78.5561 15.2244 79.0391 14.2301C79.522 13.2301 80.1641 12.483 80.9652 11.9886C81.772 11.4886 82.6555 11.2386 83.6158 11.2386C84.3487 11.2386 84.9595 11.3636 85.4482 11.6136C85.9425 11.858 86.3402 12.1648 86.6413 12.5341C86.9482 12.8977 87.1811 13.2557 87.3402 13.608H87.451V7.04545H91.0732V24.5H87.4936V22.4034H87.3402C87.1697 22.767 86.9283 23.1278 86.6158 23.4858C86.3089 23.8381 85.9084 24.1307 85.4141 24.3636C84.9254 24.5966 84.3288 24.7131 83.6243 24.7131ZM84.7749 21.8239C85.3601 21.8239 85.8544 21.6648 86.2578 21.3466C86.6669 21.0227 86.9794 20.571 87.1953 19.9915C87.4169 19.4119 87.5277 18.733 87.5277 17.9545C87.5277 17.1761 87.4197 16.5 87.2038 15.9261C86.9879 15.3523 86.6754 14.9091 86.2663 14.5966C85.8572 14.2841 85.3601 14.1278 84.7749 14.1278C84.1783 14.1278 83.6754 14.2898 83.2663 14.6136C82.8572 14.9375 82.5476 15.3864 82.3374 15.9602C82.1271 16.5341 82.022 17.1989 82.022 17.9545C82.022 18.7159 82.1271 19.3892 82.3374 19.9744C82.5533 20.554 82.8629 21.0085 83.2663 21.3381C83.6754 21.6619 84.1783 21.8239 84.7749 21.8239ZM99.973 24.7557C98.6491 24.7557 97.5043 24.4744 96.5384 23.9119C95.5781 23.3437 94.8366 22.554 94.3139 21.5426C93.7912 20.5256 93.5298 19.3466 93.5298 18.0057C93.5298 16.6534 93.7912 15.4716 94.3139 14.4602C94.8366 13.4432 95.5781 12.6534 96.5384 12.0909C97.5043 11.5227 98.6491 11.2386 99.973 11.2386C101.297 11.2386 102.439 11.5227 103.399 12.0909C104.365 12.6534 105.109 13.4432 105.632 14.4602C106.155 15.4716 106.416 16.6534 106.416 18.0057C106.416 19.3466 106.155 20.5256 105.632 21.5426C105.109 22.554 104.365 23.3437 103.399 23.9119C102.439 24.4744 101.297 24.7557 99.973 24.7557ZM99.9901 21.9432C100.592 21.9432 101.095 21.7727 101.499 21.4318C101.902 21.0852 102.206 20.6136 102.411 20.017C102.621 19.4205 102.726 18.7415 102.726 17.9801C102.726 17.2188 102.621 16.5398 102.411 15.9432C102.206 15.3466 101.902 14.875 101.499 14.5284C101.095 14.1818 100.592 14.0085 99.9901 14.0085C99.3821 14.0085 98.8707 14.1818 98.456 14.5284C98.0469 14.875 97.7372 15.3466 97.527 15.9432C97.3224 16.5398 97.2202 17.2188 97.2202 17.9801C97.2202 18.7415 97.3224 19.4205 97.527 20.017C97.7372 20.6136 98.0469 21.0852 98.456 21.4318C98.8707 21.7727 99.3821 21.9432 99.9901 21.9432Z" fill="white"/>
</svg>
